<!--<svg viewBox="0 0 24 24" xmlns="http://www.w3.org/2000/svg"><path d="m9.706 8.646a.25.25 0 0 1 -.188.137l-4.626.672a.25.25 0 0 0 -.139.427l3.348 3.262a.25.25 0 0 1 .072.222l-.79 4.607a.25.25 0 0 0 .362.264l4.138-2.176a.25.25 0 0 1 .233 0l4.137 2.175a.25.25 0 0 0 .363-.263l-.79-4.607a.25.25 0 0 1 .072-.222l3.347-3.262a.25.25 0 0 0 -.139-.427l-4.626-.672a.25.25 0 0 1 -.188-.137l-2.069-4.192a.25.25 0 0 0 -.448 0zm2.294-1.256-.948 1.921a1.75 1.75 0 0 1 -1.317.957l-2.12.308 1.534 1.495c.412.402.6.982.503 1.55l-.362 2.11 1.896-.997a1.75 1.75 0 0 1 1.629 0l1.895.997-.362-2.11a1.75 1.75 0 0 1 .504-1.55l1.533-1.495-2.12-.308a1.75 1.75 0 0 1 -1.317-.957z"/>-->
<!--<svg viewBox="0 0 24 24" xmlns="http://www.w3.org/2000/svg"><path d="m9.706 8.646a.25.25 0 0 1 -.188.137l-4.626.672a.25.25 0 0 0 -.139.427l3.348 3.262a.25.25 0 0 1 .072.222l-.79 4.607a.25.25 0 0 0 .362.264l4.138-2.176a.25.25 0 0 1 .233 0l4.137 2.175a.25.25 0 0 0 .363-.263l-.79-4.607a.25.25 0 0 1 .072-.222l3.347-3.262a.25.25 0 0 0 -.139-.427l-4.626-.672a.25.25 0 0 1 -.188-.137l-2.069-4.192a.25.25 0 0 0 -.448 0zm2.294-1.256-.948 1.921a1.75 1.75 0 0 1 -1.317.957l-2.12.308 1.534 1.495c.412.402.6.982.503 1.55l-.362 2.11 1.896-.997a1.75 1.75 0 0 1 1.629 0l1.895.997-.362-2.11a1.75 1.75 0 0 1 .504-1.55l1.533-1.495-2.12-.308a1.75 1.75 0 0 1 -1.317-.957z" fill=""/></svg>-->
<svg version="1.0" id="Layer_1" xmlns="http://www.w3.org/2000/svg" xmlns:xlink="http://www.w3.org/1999/xlink"
     width="50px" height="50px" viewBox="-6.4 -6.4 76.80 76.80" enable-background="new 0 0 64 64" xml:space="preserve"
     fill="#ffffff" stroke="black" transform="matrix(1, 0, 0, 1, 0, 0)rotate(0)">
<!--    <g id="SVGRepo_bgCarrier" stroke-width="0"></g>-->
<!--    <g id="SVGRepo_tracerCarrier" stroke-linecap="round" stroke-linejoin="round" stroke="black" stroke-width="2.0">-->
<!--        <path-->
<!--                fill="red"-->
<!--                d="M62.799,23.737c-0.47-1.399-1.681-2.419-3.139-2.642l-16.969-2.593L35.069,2.265 C34.419,0.881,33.03,0,31.504,0c-1.527,0-2.915,0.881-3.565,2.265l-7.623,16.238L3.347,21.096c-1.458,0.223-2.669,1.242-3.138,2.642 c-0.469,1.4-0.115,2.942,0.916,4l12.392,12.707l-2.935,17.977c-0.242,1.488,0.389,2.984,1.62,3.854 c1.23,0.87,2.854,0.958,4.177,0.228l15.126-8.365l15.126,8.365c0.597,0.33,1.254,0.492,1.908,0.492c0.796,0,1.592-0.242,2.269-0.72 c1.231-0.869,1.861-2.365,1.619-3.854l-2.935-17.977l12.393-12.707C62.914,26.68,63.268,25.138,62.799,23.737z">-->
<!--        </path>-->
<!--    </g>-->
    <g id="SVGRepo_iconCarrier">
        <path fill="white"
              d="M62.799,23.737c-0.47-1.399-1.681-2.419-3.139-2.642l-16.969-2.593L35.069,2.265 C34.419,0.881,33.03,0,31.504,0c-1.527,0-2.915,0.881-3.565,2.265l-7.623,16.238L3.347,21.096c-1.458,0.223-2.669,1.242-3.138,2.642 c-0.469,1.4-0.115,2.942,0.916,4l12.392,12.707l-2.935,17.977c-0.242,1.488,0.389,2.984,1.62,3.854 c1.23,0.87,2.854,0.958,4.177,0.228l15.126-8.365l15.126,8.365c0.597,0.33,1.254,0.492,1.908,0.492c0.796,0,1.592-0.242,2.269-0.72 c1.231-0.869,1.861-2.365,1.619-3.854l-2.935-17.977l12.393-12.707C62.914,26.68,63.268,25.138,62.799,23.737z">
        </path>
    </g>
<!--    <rect width="100%" height="60%" fill="#f5cd00" mask="url(#f_mask)" y="40%"/>-->
</svg>